<?xml version="1.0" standalone="no"?>
<svg width="64" height="64" viewBox="0 0 340 384" version="1.1" xmlns="http://www.w3.org/2000/svg">
  <path d="M330 287v0h-24v-30h24c6 0 10 -4 10 -10v-30c0 -6 -4 -10 -10 -10h-24v-29h24c6 0 10 -5 10 -11v-30c0 -6 -4 -10 -10 -10h-24v-29h24c6 0 10 -5 10 -11v-30c0 -6 -4 -10 -10 -10h-24v-9c0 -9 -7 -16 -16 -16h-274c-9 0 -16 7 -16 16v308c0 9 7 16 16 16h274 c9 0 16 -7 16 -16v-9h24c6 0 10 -4 10 -10v-30c0 -6 -4 -10 -10 -10zM234 122v0v44c0 4 -3 8 -6 10l-55 26c13 8 21 24 21 42c0 26 -18 48 -41 48s-41 -22 -41 -48c0 -19 9 -34 22 -42l-56 -26c-3 -2 -5 -6 -5 -10v-44c0 -6 4 -11 9 -11h142c5 0 10 5 10 11z" transform="matrix(1,0,0,-1,0,384)"/>
</svg>