<?xml version="1.0" standalone="no"?>
<svg width="64" height="64" viewBox="0 0 1024 768" version="1.1" xmlns="http://www.w3.org/2000/svg">
  <path d="M512 555q-70 0 -120.5 -50.5t-50.5 -120.5t50.5 -120.5t120.5 -50.5t120.5 50.5t50.5 120.5t-50.5 120.5t-120.5 50.5zM892 427q-16 134 -111 229t-226 108v89h-86v-89q-134 -13 -229 -108t-108 -229h-89v-86h89q16 -134 111 -229t226 -108v-89h86v89q134 16 229 111    t108 226h89v86h-89zM512 85q-125 0 -212 87t-87 212t87 212t212 87t212 -87t87 -212t-87 -212t-212 -87z" transform="matrix(1,0,0,-1,0,768)"/>
</svg>