<?xml version="1.0" encoding="utf-8"?>
<!-- Generator: Adobe Illustrator 16.0.0, SVG Export Plug-In . SVG Version: 6.00 Build 0)  -->
<!DOCTYPE svg PUBLIC "-//W3C//DTD SVG 1.1//EN" "http://www.w3.org/Graphics/SVG/1.1/DTD/svg11.dtd">
<svg version="1.1" id="图层_1" xmlns="http://www.w3.org/2000/svg" xmlns:xlink="http://www.w3.org/1999/xlink" x="0px" y="0px"
	 width="55px" height="42.375px" viewBox="0 0 55 42.375" enable-background="new 0 0 55 42.375" xml:space="preserve">
<g>
	<path d="M54.268,32.204c-1.35-1.527-5.996-3.16-8.701-4.175c-2.848-1.067-2.389-1.274-2.44-2.497
		c-0.024-0.589,0.077-0.982,0.614-1.728c0.703-0.943,1.348-3.062,1.545-4.08c0.195-1.019,0.361-1.226,0.506-1.482
		c0.145-0.256,0.143-0.31,0.396-1.1c0.256-0.79,0.342-1.762,0.351-1.965c0.007-0.203-0.22-0.699-0.271-0.969
		c-0.05-0.27,0.268-2.984,0.271-3.311s-0.487-6.064-7.253-6.173c-6.703,0.141-7.104,5.829-7.133,6.204
		c-0.026,0.375,0.242,2.624,0.242,2.624s0.015,0.548-0.013,0.696c-0.485,1.296-0.026,2.3,0.241,3.299s0.473,0.573,0.71,1.742
		c0.362,2.856,1.5,4.506,1.792,5.115c0.292,0.606,0.313,1.097,0.021,1.81c-0.148,0.672-1.738,1.412-1.738,1.412
		c7.375,2.354,8.412,4.668,8.922,5.559c0.51,0.893,0.415,3.82,0.415,3.82l0.038,5.371H55l-0.023-4.938
		C54.977,37.438,55.201,32.938,54.268,32.204z"/>
	<path d="M27.246,27.631c-2.258-0.764-1.925-1.354-1.934-2.975c0.047-0.818,0.486-0.9,0.901-1.486
		c0.415-0.584,0.71-1.06,1.217-2.353c0.506-1.294,0.392-2.666,0.921-3.582c1.729-3.774,1.17-4.18,0.842-5.538
		c0.35-2.997,0.436-3.881,0.32-5.042C29.398,5.494,27.541,0,20.525,0s-9.417,4.79-9.527,7.459c0.156,1.842,0.437,4.255,0.437,4.255
		c-0.081,0.439-0.229,0.769-0.285,1.077c-0.358,1.966,1.291,4.819,1.291,4.819c0.092,0.224,0.36,3.549,1.572,5.033
		c1.372,1.678,1.297,2.031,1.299,2.826c0.003,0.793,0.239,1.146-1.79,2.107c-13.856,4.092-13.273,7.282-13.406,7.709
		C0.108,35.711,0,42.375,0,42.375h40.625c0,0-0.012-4.648-0.178-7.711C40.281,31.603,29.504,28.396,27.246,27.631z"/>
</g>
</svg>
