<?xml version="1.0" standalone="no"?>
<svg width="64" height="64" viewBox="0 0 416 384" version="1.1" xmlns="http://www.w3.org/2000/svg">
  <path d="M122 70c23 0 41 -18 41 -41s-18 -42 -41 -42s-42 19 -42 42s19 41 42 41zM0 397h68l19 -42h308c11 0 21 -9 21 -20c0 -4 -1 -8 -2 -10l-75 -129c-7 -14 -20 -22 -36 -22h-155l-21 -32s-2 -5 -2 -6c0 -3 2 -5 5 -5h238v-40h-243c-26 0 -45 14 -45 42c0 7 2 15 5 20l31 51 l-74 151h-42v42zM326 70c23 0 42 -18 42 -41s-19 -42 -42 -42s-41 19 -41 42s18 41 41 41z" transform="matrix(1,0,0,-1,0,384)"/>
</svg>